<?xml version="1.0" encoding="UTF-8" standalone="no"?>
<!-- Created with Inkscape (http://www.inkscape.org/) -->

<svg
   xmlns:dc="http://purl.org/dc/elements/1.1/"
   xmlns:cc="http://creativecommons.org/ns#"
   xmlns:rdf="http://www.w3.org/1999/02/22-rdf-syntax-ns#"
   xmlns:svg="http://www.w3.org/2000/svg"
   xmlns="http://www.w3.org/2000/svg"
   xmlns:sodipodi="http://sodipodi.sourceforge.net/DTD/sodipodi-0.dtd"
   xmlns:inkscape="http://www.inkscape.org/namespaces/inkscape"
   width="178"
   height="153.3125"
   id="svg3061"
   version="1.1"
   inkscape:version="0.48.5 r10040"
   sodipodi:docname="noteTesterScoreBg.svg">
  <defs
     id="defs3063" />
  <sodipodi:namedview
     id="base"
     pagecolor="#ffffff"
     bordercolor="#666666"
     borderopacity="1.0"
     inkscape:pageopacity="0.0"
     inkscape:pageshadow="2"
     inkscape:zoom="1.979899"
     inkscape:cx="65.777561"
     inkscape:cy="68.778367"
     inkscape:document-units="px"
     inkscape:current-layer="layer1"
     showgrid="false"
     fit-margin-top="0"
     fit-margin-left="0"
     fit-margin-right="0"
     fit-margin-bottom="0"
     inkscape:window-width="1274"
     inkscape:window-height="564"
     inkscape:window-x="2050"
     inkscape:window-y="130"
     inkscape:window-maximized="0" />
  <metadata
     id="metadata3066">
    <rdf:RDF>
      <cc:Work
         rdf:about="">
        <dc:format>image/svg+xml</dc:format>
        <dc:type
           rdf:resource="http://purl.org/dc/dcmitype/StillImage" />
        <dc:title></dc:title>
      </cc:Work>
    </rdf:RDF>
  </metadata>
  <g
     inkscape:label="Capa 1"
     inkscape:groupmode="layer"
     id="layer1"
     transform="translate(-196.46875,-403.875)">
    <rect
       style="fill:none;fill-opacity:1;fill-rule:nonzero;stroke:none;stroke-width:1.42237437000000000;stroke-opacity:1"
       id="rect4676"
       width="176.59727"
       height="151.90096"
       x="197.16641"
       y="404.58005"
       inkscape:export-filename="C:\S4L\VM\default\s4l\layout\inkscape\notePickerBG.png"
       inkscape:export-xdpi="78.753075"
       inkscape:export-ydpi="78.753075" />
    <g
       id="g4678"
       transform="matrix(1.5306425,0,0,1.5306425,-309.94462,-875.40016)"
       inkscape:export-filename="C:\S4L\VM\default\s4l\layout\inkscape\notePickerBG.png"
       inkscape:export-xdpi="78.753075"
       inkscape:export-ydpi="78.753075">
      <g
         id="g4669">
        <path
           style="fill:none;stroke:#000000;stroke-width:1px;stroke-linecap:butt;stroke-linejoin:miter;stroke-opacity:1"
           d="m 349.10714,563.55877 0,29.28571 79.75,0.17857 L 428.5,563.73734 z"
           id="path4620"
           inkscape:connector-curvature="0"
           transform="translate(0,308.2677)"
           sodipodi:nodetypes="ccccc" />
        <path
           style="fill:none;stroke:#000000;stroke-width:1px;stroke-linecap:butt;stroke-linejoin:miter;stroke-opacity:1"
           d="m 348.92857,571.23734 79.75,0"
           id="path4622"
           inkscape:connector-curvature="0"
           transform="translate(0,308.2677)"
           sodipodi:nodetypes="cc" />
        <path
           style="fill:none;stroke:#000000;stroke-width:1px;stroke-linecap:butt;stroke-linejoin:miter;stroke-opacity:1"
           d="m 349.375,886.82647 79.75,0"
           id="path4622-3"
           inkscape:connector-curvature="0"
           sodipodi:nodetypes="cc" />
        <path
           style="fill:none;stroke:#000000;stroke-width:1px;stroke-linecap:butt;stroke-linejoin:miter;stroke-opacity:1"
           d="m 349.01786,893.79075 79.75,0"
           id="path4622-6"
           inkscape:connector-curvature="0"
           sodipodi:nodetypes="cc" />
      </g>
      <path
         sodipodi:nodetypes="cccccccccccccccccccccccccc"
         transform="translate(0,308.2677)"
         inkscape:connector-curvature="0"
         id="path4649"
         d="m 363.03572,600.8802 2.32142,-0.71429 c 1.45305,-2.95786 0.68284,-5.07461 -2.14285,-5.71429 -2.38314,-0.14182 -3.4386,0.70054 -4.10715,2.32143 -1.73123,7.39754 6.62756,7.56886 9.82143,4.82143 1.67689,-1.88681 2.50817,-2.88366 1.96429,-6.07143 -1.12702,-6.90501 -3.5836,-14.00352 -5.35714,-19.46428 -1.54526,-3.8192 -0.9385,-24.23418 3.92857,-18.57143 3.74108,8.04463 -9.30618,14.32207 -12.76786,20.98214 -2.25019,7.31546 -0.30569,12.62119 5.98214,15.08929 6.78116,0.39294 11.02286,-2.34673 12.67857,-8.21429 0.73109,-4.81897 -2.73034,-8.29796 -7.58928,-7.67857 -4.4672,0.37675 -7.0778,4.669 -6.33929,8.92857 l 0.89286,0.71429 c 2.51626,-9.71597 13.50843,-6.03811 9.46428,1.875 -2.80524,5.64543 -12.28959,2.33808 -12.49999,-2.76786 -0.68456,-6.3384 3.3627,-10.50525 7.23214,-14.19643 5.06859,-4.59497 7.31437,-11.4585 6.16071,-16.33928 -1.22224,-2.89932 -2.28865,-3.58184 -4.46428,-3.92858 -3.73671,1.13506 -3.82163,3.94691 -4.82143,6.96429 -0.49639,3.11793 -0.42791,5.9011 -0.17857,9.01785 0.41667,2.91667 0.30584,6.10941 1.25,9.55357 l 3.03571,9.46429 0.89286,3.92858 c 0.78568,2.35725 0.87596,4.40398 0.53571,6.78571 -1.19267,2.776 -2.94575,3.80371 -5.89285,3.21429 z"
         style="fill:#000000;fill-opacity:1;stroke:#000000;stroke-width:1px;stroke-linecap:butt;stroke-linejoin:miter;stroke-opacity:1" />
    </g>
  </g>
</svg>
